# xmcd
#
# Track frame offsets:
#	150
#	28537
#	50550
#	65800
#	94200
#	116250
#	146600
#	167600
#	188062
#	210100
#
# Disc length: 3143 seconds
#
# Revision: 1
# Processed by: cddbd v1.5.1PL0 Copyright (c) Steve Scherf et al.
# Submitted via: CDex 1.50Beta5
#
DISCID=840c450a
DTITLE=村岡健 - スターダスト
DYEAR=1900
DGENRE=Jazz
TTITLE0=サテンドール
TTITLE1=オン・ザ・サニーサイド・オブ・ザ・ストリート
TTITLE2=スターダスト
TTITLE3=ダニー・ボーイ
TTITLE4=君去りし後
TTITLE5=煙が目にしみる
TTITLE6=言い出しかねて
TTITLE7=サイド・バイ・サイド
TTITLE8=引き潮
TTITLE9=ザ・マン・アイ・ラブ
EXTD=
EXTT0=
EXTT1=
EXTT2=
EXTT3=
EXTT4=
EXTT5=
EXTT6=
EXTT7=
EXTT8=
EXTT9=
PLAYORDER=
